<svg xmlns="http://www.w3.org/2000/svg" width="511pt" height="511pt" viewBox="0 1 512 511"><path d="M506.81 111.23L307.41 1.73a10 10 0 00-9.63 0L222.62 43a10.03 10.03 0 00-4.3 2.36L98.39 111.23a10 10 0 00-5.19 8.77v132.43a132.37 132.37 0 00-54.2 32.9A133.09 133.09 0 0013.5 437.85a10 10 0 1017.97-8.78 113.09 113.09 0 0121.67-129.58c21.35-21.36 49.74-33.12 79.94-33.12s58.6 11.76 79.95 33.12c21.35 21.35 33.11 49.74 33.11 79.94s-11.76 58.59-33.12 79.94a113.09 113.09 0 01-129.58 21.67A10 10 0 1074.66 499a133.12 133.12 0 00152.5-25.5 133.03 133.03 0 0027.53-39.92l43.1 23.66a9.98 9.98 0 009.62 0l199.4-109.49a10 10 0 005.19-8.77v-69.5a10 10 0 10-20 0v63.59l-179.38 98.5V235.38l59.2-32.5v51.52a10 10 0 0014.82 8.77l42.73-23.52a10 10 0 005.18-8.76v-62.46L492 136.89v52.6a10 10 0 1020 0V120a10 10 0 00-5.19-8.76zM302.6 21.91L481.22 120l-56.34 30.94-178.63-98.1zm0 196.17L123.96 120l58.42-32.08L361 186zm79.2-43.48L203.16 76.5l22.3-12.25 178.64 98.08zM227.17 285.34a132.19 132.19 0 00-94.09-38.98c-6.72 0-13.36.5-19.89 1.47V136.9l179.44 98.54V431.6l-31.15-17.1a133.7 133.7 0 004.66-35.08c0-35.54-13.84-68.96-38.97-94.08zm187.38-60.35l-22.73 12.51v-45.6l22.73-12.48zm0 0"/><path d="M502 219.44c-2.63 0-5.21 1.07-7.07 2.93a10.07 10.07 0 00-2.93 7.07c0 2.63 1.07 5.2 2.93 7.07 1.86 1.86 4.44 2.93 7.07 2.93s5.21-1.07 7.07-2.93a10.07 10.07 0 002.93-7.07c0-2.63-1.07-5.21-2.93-7.07a10.08 10.08 0 00-7.07-2.93zm0 0M99.46 389.42a10 10 0 007.07-17.07l-6.93-6.93h59.1c14.34 0 26 11.66 26 26 0 14.33-11.66 26-26 26h-35.02a10 10 0 100 20h35.02c25.37 0 46-20.64 46-46s-20.63-46-46-46H99.6l6.93-6.93a10 10 0 00-14.14-14.14l-24 24a10 10 0 000 14.14l24 24a9.97 9.97 0 007.07 2.93zm0 0M46.07 476.45a9.95 9.95 0 01-7.64-3.56l-.02-.02a10 10 0 117.66 3.58zm0 0"/></svg>