<svg xmlns="http://www.w3.org/2000/svg" width="512pt" height="512pt" viewBox="0 0 512 512"><path d="M436 412a10 10 0 100-20 10 10 0 000 20zm0 0M100 352c-33.09 0-60 26.91-60 60s26.91 60 60 60 60-26.91 60-60-26.91-60-60-60zm0 100c-22.05 0-40-17.95-40-40s17.95-40 40-40 40 17.95 40 40-17.95 40-40 40zm0 0"/><path d="M502 332H289.85l144.6-144.6a10 10 0 000-14.14l-98.99-99a10 10 0 00-14.14 0L180 215.58V10a10 10 0 00-10-10H30a10 10 0 00-10 10v342.02A100.23 100.23 0 000 412c0 55.14 44.86 100 100 100 21.62 0 42.77-7.09 59.98-20H502a10 10 0 0010-10V342a10 10 0 00-10-10zM257.68 166.18l84.85 84.86-70.71 70.7-84.86-84.84zm-59.14 228.85A100.13 100.13 0 00180 352.02v-93.8l77.68 77.67zM40 232V126h120v106zm0 20h120v79.98C142.87 319.1 121.96 312 100 312s-42.88 7.1-60 19.98zm159.45 170.4L260 361.85V472h-80.01a99.75 99.75 0 0019.46-49.6zM280 352h106v120H280zm48.4-256.53l84.84 84.86-56.57 56.57-84.85-84.86zM160 20v86H40V20zM20 412c0-44.45 36.02-80 80-80 44.55 0 80 36.17 80 80 0 43.62-35.25 80-80 80-44.11 0-80-35.89-80-80zm472 60h-46v-30a10 10 0 10-20 0v30h-20V352h86zm0 0"/></svg>