<svg xmlns="http://www.w3.org/2000/svg" viewBox="0 0 512 512"><path d="M119.47 337.07a51.25 51.25 0 00-51.2 51.2c0 28.23 22.96 51.2 51.2 51.2s51.2-22.97 51.2-51.2a51.25 51.25 0 00-51.2-51.2zm0 85.33a34.17 34.17 0 01-34.14-34.13c0-18.83 15.31-34.14 34.14-34.14s34.13 15.31 34.13 34.14a34.17 34.17 0 01-34.13 34.13zM409.6 337.07a51.25 51.25 0 00-51.2 51.2 51.25 51.25 0 0051.2 51.2 51.25 51.25 0 0051.2-51.2 51.25 51.25 0 00-51.2-51.2zm0 85.33a34.17 34.17 0 01-34.13-34.13 34.17 34.17 0 0134.13-34.14 34.17 34.17 0 0134.13 34.14 34.17 34.17 0 01-34.13 34.13z"/><path d="M510.64 289.78l-76.8-119.46a8.54 8.54 0 00-7.17-3.92H332.8a8.53 8.53 0 00-8.53 8.53v213.34a8.52 8.52 0 008.53 8.53h34.13v-17.07h-25.6V183.47h80.68l72.92 113.44v82.82h-42.66v17.07h51.2a8.52 8.52 0 008.53-8.53V294.4c0-1.63-.47-3.24-1.36-4.62z"/><path d="M375.47 277.33V217.6h68.26v-17.07h-76.8a8.53 8.53 0 00-8.53 8.54v76.8a8.52 8.52 0 008.53 8.53h128v-17.07H375.47zM332.8 106.67H8.53A8.54 8.54 0 000 115.2v273.07a8.53 8.53 0 008.53 8.53H76.8v-17.07H17.07v-256h307.2v256H162.13v17.07H332.8a8.52 8.52 0 008.53-8.53V115.2a8.53 8.53 0 00-8.53-8.53z"/><path d="M8.53 345.6h51.2v17.07H8.53zM179.2 345.6h145.07v17.07H179.2zM469.33 345.6h34.14v17.07h-34.14zM34.13 140.8H332.8v17.07H34.13zM110.93 379.73H128v17.07h-17.07zM401.07 379.73h17.06v17.07h-17.06zM34.13 72.53H153.6V89.6H34.13zM0 72.53h17.07V89.6H0z"/></svg>