<svg xmlns="http://www.w3.org/2000/svg" width="1024" height="1024" viewBox="0 0 1024 1024"><title></title><g id="icomoon-ignore">
</g><path fill="#000" d="M1022.656 373.875c-0.667-2.688-1.563-5.271-2.688-7.719-0.427-0.917-0.937-1.75-1.427-2.625-1.052-1.896-2.219-3.729-3.542-5.438-0.687-0.875-1.365-1.729-2.094-2.542-1.531-1.708-3.219-3.24-4.99-4.677-0.531-0.417-0.917-0.979-1.479-1.385l-469.333-341.333c-14.948-10.875-35.24-10.875-50.208 0l-469.333 341.333c-0.563 0.406-0.948 0.969-1.479 1.385-1.792 1.438-3.458 2.969-4.99 4.677-0.75 0.833-1.427 1.667-2.094 2.542-1.323 1.708-2.469 3.542-3.542 5.438-0.49 0.875-1 1.708-1.427 2.625-1.125 2.448-2.021 5.031-2.688 7.719-0.104 0.427-0.302 0.812-0.385 1.24-0.615 2.854-0.958 5.823-0.958 8.875v597.333c0 23.552 19.115 42.667 42.667 42.667h128c23.552 0 42.667-19.115 42.667-42.667s-19.115-42.667-42.667-42.667h-85.333v-476.927l402.969 256.406c0.49 0.344 1.042 0.677 1.552 1l344.938 219.521h-493.458c-23.552 0-42.667 19.115-42.667 42.667s19.115 42.667 42.667 42.667h639.958c0.083 0 0.167-0.042 0.25-0.042 3.25-0.021 6.385-0.469 9.438-1.177 0.875-0.208 1.708-0.531 2.552-0.792 2.271-0.677 4.437-1.49 6.531-2.531 0.958-0.469 1.896-0.979 2.844-1.542 2-1.188 3.875-2.531 5.667-4.031 0.729-0.615 1.5-1.125 2.177-1.792 2.375-2.26 4.479-4.76 6.271-7.51 0.083-0.125 0.219-0.229 0.302-0.365 0.552-0.844 0.875-1.792 1.344-2.688 0.771-1.427 1.583-2.833 2.198-4.365 0.531-1.344 0.875-2.719 1.26-4.083 0.385-1.302 0.812-2.552 1.062-3.896 0.323-1.687 0.406-3.396 0.51-5.104 0.094-0.896 0.302-1.792 0.302-2.75v-597.333c0-3.052-0.344-6.021-0.958-8.875-0.083-0.427-0.281-0.813-0.385-1.24zM118.437 381.646l393.563-286.229 393.563 286.229-393.563 250.427zM938.667 461.729v441.854l-347.177-220.927z"></path></svg>