<svg xmlns="http://www.w3.org/2000/svg" id="Capa_1" height="512" viewBox="0 0 511.523 511.523" width="512"><path id="XMLID_822_" d="m468.536 384.914c-26.555-26.555-26.555-69.763 0-96.318 13.979-13.979 21.678-32.565 21.678-52.334s-7.698-38.355-21.678-52.334l-6.835-6.835c5.958-4.491 9.229-7.026 9.792-7.589 30.108-30.109 30.108-79.1 0-109.208-14.586-14.585-33.978-22.618-54.604-22.618s-40.019 8.033-54.604 22.618c-.719.719-4.658 5.86-11.783 15.377l-10.416-10.416c-12.688-12.688-29.558-19.676-47.501-19.676-17.944 0-34.813 6.987-47.502 19.676l-69.008 69.008c-12.698 12.697-33.357 12.696-46.054 0-11.816-11.817-27.528-18.325-44.239-18.325-16.712 0-32.424 6.508-44.24 18.325l-41.542 41.541 21.213 21.213 41.542-41.542c6.15-6.15 14.328-9.538 23.027-9.538 8.698 0 16.876 3.387 23.026 9.538 24.394 24.395 64.084 24.396 88.479 0l69.008-69.007c7.022-7.022 16.358-10.889 26.289-10.889s19.267 3.867 26.288 10.889l13.531 13.531c-37.515 50.635-110.094 149.432-217.074 295.492l-57.39 78.354 78.354-57.39c151.667-111.087 252.372-185.08 301.108-221.238l9.92 9.92c8.313 8.313 12.891 19.366 12.891 31.122s-4.578 22.809-12.891 31.122c-18.53 18.53-28.735 43.167-28.735 69.372s10.205 50.842 28.735 69.372l42.987 42.987 21.213-21.213zm-271.485-50.177c85.094-116.044 179.012-243.829 186.864-253.641 8.869-8.658 20.556-13.419 32.974-13.419 12.613 0 24.473 4.912 33.392 13.831 18.273 18.273 18.41 47.921.411 66.365-1.345 1.076-4.919 3.779-10.364 7.846l-21.523-21.523 13.322-13.322-21.213-21.213-47.857 47.857 21.213 21.213 13.322-13.322 18.384 18.384c-47.7 35.277-136.283 100.343-218.925 160.944z"></path></svg>