<svg xmlns="http://www.w3.org/2000/svg" id="Capa_1" height="512" viewBox="0 0 512 512" width="512"><g id="XMLID_366_"><path id="XMLID_388_" d="m414.333 453.314v-16.33c0-18.195 14.803-32.997 32.997-32.997h14.266v-30h-14.266c-12.473 0-24.108 3.642-33.903 9.921-4.397-22.535-24.291-39.594-48.094-39.594h-22.333v30h22.333c10.477 0 19 8.523 19 19v60h-216.353v-49.327h25.5c33.469 0 60.697-27.229 60.697-60.697v-37.976h-55.5c-18.211 0-34.562 8.073-45.697 20.815-11.135-12.742-27.486-20.815-45.696-20.815h-55.5v37.976c0 33.469 27.229 60.697 60.696 60.697h25.5v49.327h-137.98v30h512v-30zm-215.655-118h25.5v7.976c0 16.927-13.771 30.697-30.697 30.697h-25.5v-7.976c-.001-16.926 13.77-30.697 30.697-30.697zm-86.198 38.673c-16.926 0-30.696-13.771-30.696-30.697v-7.976h25.5c16.926 0 30.696 13.771 30.696 30.697v7.976z"></path><path id="XMLID_397_" d="m381.083 270.235 110.726-110.726-36.122-36.122 2.494-2.494c21.06-21.06 21.06-55.327 0-76.387-10.202-10.202-23.767-15.82-38.193-15.82-14.428 0-27.992 5.618-38.193 15.82l-2.495 2.494-18.084-18.084-110.726 110.726 35.984 35.984h-64.142v30h94.141zm21.924-204.516c4.536-4.536 10.565-7.033 16.98-7.033 6.414 0 12.444 2.498 16.98 7.033 9.362 9.363 9.362 24.598 0 33.961l-2.494 2.494-33.961-33.96zm-41.791 5.624 88.167 88.166-68.3 68.299-88.167-88.167z"></path><path id="XMLID_399_" d="m167.98 279.667c0-19.31 15.71-35.019 35.02-35.019v-30c-35.852 0-65.02 29.167-65.02 65.019v13.314h30z"></path></g></svg>